# xmcd
# 
# Track frame offsets:
#     150
#     24093
#     52748
#     73258
#     94625
#     115258
#     135183
#     151005
#     175743
#     194750
#     219138
#     241655
#     261245
#     288280
#     311933
# 
# Disc length: 4477
# 
# Revision: 3
# Processed by: cddbd v1.5.2PL0 Copyright (c) Steve Scherf et al.
# Submitted via: fre:ac v1.0.17
# 
DISCID=c2117b0f
DTITLE=福山雅治 - Acoustic Fukuyamania
DYEAR=2005
DGENRE=Instrumental Pop
TTITLE0=追憶の雨の中
TTITLE1=雨のメインストリート
TTITLE2=ただ僕がかわった
TTITLE3=Good night
TTITLE4=約束の丘
TTITLE5=MELODY
TTITLE6=All My Loving
TTITLE7=IT'S ONLY LOVE
TTITLE8=HELLO
TTITLE9=HEAVEN
TTITLE10=Squall
TTITLE11=桜坂
TTITLE12=Gang★
TTITLE13=虹
TTITLE14=泣いたりしないで
EXTD=YEAR: 2005
EXTT0=
EXTT1=
EXTT2=
EXTT3=
EXTT4=
EXTT5=
EXTT6=
EXTT7=
EXTT8=
EXTT9=
EXTT10=
EXTT11=
EXTT12=
EXTT13=
EXTT14=
PLAYORDER=
